<svg xmlns="http://www.w3.org/2000/svg" viewBox="0 0 439.49 14.52"><defs><style>.cls-1{fill:#fff;}</style></defs><title>wave</title><g id="Слой_2" data-name="Слой 2"><g id="Слой_1-2" data-name="Слой 1"><g id="Layer_1-2" data-name="Layer 1-2"><path class="cls-1" d="M413.44,6C411,3.17,408.25,0,402.76,0s-8.22,3.17-10.65,6-4,4.63-7.64,4.63-5.42-2-7.64-4.63S371.61,0,366.17,0,358,3.17,355.4,6s-4,4.63-7.64,4.63-5.42-2-7.64-4.63S335.07,0,329.61,0,321.39,3.17,319,6s-4,4.63-7.64,4.63-5.42-2-7.64-4.63S298.48,0,293,0V4c3.66,0,5.42,2,7.65,4.63s5.18,5.91,10.76,5.91,8.23-3.17,10.66-5.95,4-4.63,7.64-4.63,5.42,2,7.64,4.63,5.17,5.95,10.63,5.95,8.13-3.17,10.56-5.95,4-4.63,7.64-4.63,5.42,2,7.64,4.63,5.17,5.95,10.66,5.95,8.22-3.17,10.65-5.95,4-4.63,7.64-4.63,5.44,2,7.67,4.63,5.18,5.95,10.67,5.95,8.25-3.17,10.73-5.95,4-4.63,7.66-4.63V0c-5.49,0-8.24,3.17-10.68,6s-4,4.63-7.66,4.63S415.61,8.52,413.44,6Z"/><path class="cls-1" d="M266.94,6C264.49,3.17,261.75,0,256.27,0S248,3.17,245.61,6s-4,4.63-7.64,4.63-5.42-2-7.64-4.63S225.12,0,219.68,0s-8.23,3.17-10.77,6-4,4.63-7.64,4.63-5.42-2-7.65-4.63S188.57,0,183.11,0s-8.22,3.17-10.65,6-4,4.63-7.65,4.63-5.41-2-7.64-4.63S152,0,146.5,0V4c3.66,0,5.42,2,7.64,4.63s5.19,5.91,10.77,5.91,8.22-3.17,10.65-5.95,4-4.63,7.64-4.63,5.42,2,7.64,4.63,5.17,5.95,10.63,5.95S209.6,11.35,212,8.57s4-4.63,7.65-4.63,5.41,2,7.64,4.63,5.16,5.95,10.65,5.95,8.22-3.17,10.65-5.95,4-4.63,7.65-4.63,5.44,2,7.66,4.63,5.19,5.95,10.68,5.95,8.24-3.17,10.72-5.95,4-4.63,7.66-4.63V0c-5.48,0-8.24,3.17-10.67,6s-4,4.63-7.67,4.63S269.12,8.52,266.94,6Z"/><path class="cls-1" d="M120.44,6C118,3.17,115.26,0,109.77,0s-8.22,3.17-10.65,6-4,4.63-7.65,4.63-5.42-2-7.64-4.63S78.62,0,73.18,0,65,3.17,62.41,6s-4,4.63-7.64,4.63-5.42-2-7.64-4.63S42.08,0,36.61,0,28.39,3.17,26,6s-4,4.63-7.64,4.63S12.9,8.57,10.68,6,5.49,0,0,0V4C3.66,4,5.42,6,7.64,8.61s5.19,5.91,10.77,5.91,8.22-3.17,10.65-5.95,4-4.63,7.65-4.63,5.41,2,7.64,4.63S49.51,14.52,55,14.52s8.13-3.17,10.56-5.95,4-4.63,7.64-4.63,5.42,2,7.64,4.63S86,14.52,91.47,14.52s8.22-3.17,10.66-5.95,4-4.63,7.64-4.63,5.44,2,7.66,4.63,5.19,5.95,10.68,5.95,8.24-3.17,10.72-5.95,4-4.63,7.67-4.63V0c-5.49,0-8.25,3.17-10.68,6s-4,4.63-7.66,4.63S122.62,8.52,120.44,6Z"/></g></g></g></svg>